<?xml version="1.0" standalone="no"?>
<!DOCTYPE svg PUBLIC "-//W3C//DTD SVG 20010904//EN"
 "http://www.w3.org/TR/2001/REC-SVG-20010904/DTD/svg10.dtd">
<svg t="1679565228731" class="icon" viewBox="0 0 1024 1024" version="1.1" xmlns="http://www.w3.org/2000/svg" p-id="1568" 
width="50" height="50"
><path d="M482.833 628.667h-262.5V687h262.5c32.167 0 58.333 26.166 58.333 58.333S515 803.666 482.833 803.666c-20.463 0-38.322-10.704-48.72-26.698l-41.742 41.742c21.372 26.371 53.94 43.29 90.462 43.29 64.329 0 116.667-52.338 116.667-116.667s-52.338-116.666-116.667-116.666z" fill="#d4237a" p-id="1569"></path><path d="M745.333 492.556H268.944c-26.803 0-48.611-21.809-48.611-48.611 0-26.803 21.809-48.611 48.611-48.611h281.944c64.329 0 116.667-52.338 116.667-116.667S615.218 162 550.889 162c-36.522 0-69.09 16.919-90.462 43.29l41.742 41.742c10.399-15.994 28.258-26.698 48.72-26.698 32.167 0 58.333 26.166 58.333 58.333S583.056 337 550.889 337H268.945C209.975 337 162 384.975 162 443.944s47.975 106.944 106.944 106.944h476.389c32.167 0 58.333 26.166 58.333 58.333s-26.166 58.333-58.333 58.333c-20.463 0-38.322-10.704-48.72-26.698l-41.742 41.742c21.372 26.371 53.94 43.29 90.462 43.29C809.662 725.888 862 673.55 862 609.221s-52.338-116.665-116.667-116.665z" fill="#d4237a" p-id="1570"></path></svg>
